<?xml version="1.0" encoding="iso-8859-1"?>
<!-- Uploaded to: SVG Repo, www.svgrepo.com, Generator: SVG Repo Mixer Tools -->
<svg version="1.1" id="Layer_1" xmlns="http://www.w3.org/2000/svg" xmlns:xlink="http://www.w3.org/1999/xlink" 
	 viewBox="0 0 512.003 512.003" xml:space="preserve">
<rect x="411.577" y="388.15" style="fill:#734734;" width="39.906" height="115.899"/>
<rect x="411.577" y="388.15" style="opacity:0.3;fill:#333333;enable-background:new    ;" width="39.906" height="43.206"/>
<rect x="176.235" y="388.15" style="fill:#734734;" width="39.906" height="115.899"/>
<rect x="176.235" y="388.15" style="opacity:0.3;fill:#333333;enable-background:new    ;" width="39.906" height="43.206"/>
<g>
	<rect x="155.741" y="357.759" style="fill:#FFCA66;" width="316.224" height="52.399"/>
	<path style="fill:#FFCA66;" d="M402.587,7.952H225.122c-20.752,0-37.575,16.823-37.575,37.575v190.69h252.614V45.526
		C440.161,24.774,423.338,7.952,402.587,7.952z"/>
</g>
<path style="fill:#734734;" d="M206.241,300.234h-51.637c-34.177,0-61.983-27.805-61.983-61.982v-69.313
	c0-7.319,5.934-13.252,13.252-13.252c7.318,0,13.252,5.933,13.252,13.252v69.313c0,19.562,15.916,35.477,35.478,35.477h51.636
	c7.318,0,13.252,5.934,13.252,13.252C219.493,294.301,213.559,300.234,206.241,300.234z"/>
<path style="opacity:0.3;fill:#333333;enable-background:new    ;" d="M148.949,299.965c1.863,0.169,3.748,0.269,5.655,0.269h51.636
	c7.318,0,13.252-5.933,13.252-13.252c0-7.318-5.934-13.252-13.252-13.252h-50.426L148.949,299.965z"/>
<polygon style="fill:#E6B251;" points="471.966,357.757 155.743,357.757 187.548,236.217 440.161,236.217 "/>
<path style="opacity:0.3;fill:#333333;enable-background:new    ;" d="M105.874,155.687c-7.318,0-13.252,5.933-13.252,13.252v37.376
	h26.504v-37.376C119.126,161.619,113.192,155.687,105.874,155.687z"/>
<rect x="40.037" y="144.289" style="fill:#FF8095;" width="252.61" height="40.824"/>
<path style="fill:#26150C;" d="M479.875,357.11c-0.007-0.082-0.011-0.164-0.021-0.245c-0.066-0.584-0.171-1.157-0.356-1.696
	l-31.395-119.973V45.526C448.103,20.423,427.679,0,402.576,0H225.112c-25.102,0-45.525,20.423-45.525,45.526v90.807H40.026
	c-4.391,0-7.952,3.56-7.952,7.952v40.827c0,4.392,3.561,7.952,7.952,7.952h52.584v45.19c0,34.177,27.805,61.982,61.982,61.982h7.973
	l-14.526,55.511c-0.012,0.047-0.018,0.094-0.028,0.141c-0.046,0.191-0.085,0.385-0.117,0.582c-0.016,0.101-0.033,0.2-0.046,0.301
	c-0.022,0.18-0.035,0.362-0.046,0.545c-0.007,0.112-0.015,0.222-0.018,0.334c0,0.037-0.005,0.073-0.005,0.112v52.399
	c0,4.391,3.561,7.952,7.952,7.952h12.536v85.942c0,4.392,3.56,7.952,7.952,7.952h39.906c4.391,0,7.952-3.56,7.952-7.952v-85.942
	h179.535v85.942c0,4.392,3.56,7.952,7.952,7.952h39.906c4.391,0,7.952-3.56,7.952-7.952v-85.942h12.536
	c4.391,0,7.952-3.561,7.952-7.952V358.18c0.008-0.14,0.021-0.279,0.021-0.421C479.929,357.536,479.893,357.326,479.875,357.11z
	 M461.656,349.805H166.031l27.644-105.637h240.338L461.656,349.805z M195.489,45.526c0-16.334,13.289-29.623,29.623-29.623h177.464
	c16.335,0,29.623,13.289,29.623,29.623v182.74H195.489v-35.204h97.152c4.391,0,7.952-3.56,7.952-7.952v-40.827
	c0-4.392-3.56-7.952-7.952-7.952h-97.152L195.489,45.526L195.489,45.526z M47.978,177.159v-24.924h139.559h97.152v24.924h-97.152
	H47.978z M154.592,273.729c-19.562,0-35.477-15.915-35.477-35.477v-45.19h60.47v42.132l-10.084,38.535H154.592z M208.174,496.098
	H184.17v-77.992h24.004V496.098z M443.517,496.098h-24.004v-77.992h24.004V496.098z M464.005,402.204h-12.536h-39.906H216.126
	h-39.906h-12.536v-36.496h300.321V402.204z"/>
</svg>