<?xml version="1.0" encoding="iso-8859-1"?>
<!-- Uploaded to: SVG Repo, www.svgrepo.com, Generator: SVG Repo Mixer Tools -->
<svg version="1.1" id="Layer_1" xmlns="http://www.w3.org/2000/svg" xmlns:xlink="http://www.w3.org/1999/xlink" 
	 viewBox="0 0 512.001 512.001" xml:space="preserve">
<g>
	<path style="fill:#F4C49D;" d="M138.197,152.327c-21.467,0-38.868,17.401-38.868,38.868l0,0c0,21.467,17.401,38.868,38.868,38.868
		h17.838v-77.736H138.197z"/>
	<path style="fill:#F4C49D;" d="M373.798,152.327c21.467,0,38.868,17.401,38.868,38.868l0,0c0,21.467-17.401,38.868-38.868,38.868
		H355.96v-77.736H373.798z"/>
	<rect x="222.503" y="281.991" style="fill:#F4C49D;" width="66.993" height="65.314"/>
</g>
<path style="opacity:0.15;fill:#333333;enable-background:new    ;" d="M222.499,327.476c10.748,2.6,21.963,3.988,33.499,3.988
	c11.535,0,22.751-1.388,33.5-3.988v-49.927H222.5v49.927H222.499z"/>
<path style="fill:#FCCDA2;" d="M255.997,9.329L255.997,9.329c-66.944,0-121.213,54.269-121.213,121.213v62.888
	c0,66.944,54.269,121.213,121.213,121.213l0,0c66.944,0,121.213-54.269,121.213-121.213v-62.888
	C377.211,63.598,322.941,9.329,255.997,9.329z"/>
<path style="fill:#293133;" d="M321.276,347.301H190.72c-50.474,0-91.39,40.916-91.39,91.39v65.337h313.336v-65.337
	C412.666,388.218,371.75,347.301,321.276,347.301z"/>
<path style="fill:#FFF9F2;" d="M256.002,459.687c0,0,53.313-74.82,79.314-111.312c-4.577-0.706-9.265-1.075-14.039-1.075H190.72
	c-4.772,0-9.457,0.369-14.033,1.074L256.002,459.687z"/>
<polygon style="fill:#FF99AA;" points="263.835,347.301 276.28,364.304 263.835,386.049 248.161,386.049 235.716,364.304 
	248.161,347.301 "/>
<polygon style="fill:#FF8095;" points="274.865,433.202 263.835,386.049 248.161,386.049 237.129,433.202 256.002,459.687 "/>
<path style="fill:#B06D4F;" d="M255.997,9.329L255.997,9.329c-57.833,0-106.199,40.505-118.295,94.692
	c4.103,7.566,12.114,12.703,21.324,12.703c13.389,0,24.243-10.854,24.243-24.242c0,13.389,10.854,24.242,24.242,24.242
	c13.388,0,24.243-10.854,24.243-24.242c0,13.389,10.854,24.242,24.242,24.242c13.388,0,24.243-10.854,24.243-24.242
	c0,13.389,10.854,24.242,24.242,24.242s24.242-10.854,24.242-24.242c0,13.389,10.854,24.242,24.243,24.242
	c9.211,0,17.222-5.138,21.324-12.703C362.196,49.835,313.83,9.329,255.997,9.329z"/>
<path style="fill:#1F2326;" d="M115.922,121.578c-4.403,0-7.972-3.569-7.972-7.972V25.699c0-4.402,3.568-7.972,7.972-7.972
	s7.972,3.569,7.972,7.972v87.907C123.894,118.009,120.325,121.578,115.922,121.578z"/>
<g>
	<path style="fill:#293133;" d="M92.151,7.972v30.35h107.018v38.662c35.597-7.285,56.829,13.62,56.829,13.62
		s21.232-20.904,56.829-13.62V38.322H419.85V7.972H92.151z"/>
	<circle style="fill:#293133;" cx="115.918" cy="113.611" r="23.641"/>
</g>
<path style="opacity:0.1;fill:#333333;enable-background:new    ;" d="M157.042,193.815v-62.888c0-4.701,0.277-9.337,0.798-13.9
	c0.03,0,0.058,0.003,0.088,0.003l2.027-12.595c0.007-0.034,0.015-0.068,0.022-0.102c1.055-4.712,2.383-9.321,3.97-13.808
	c0.01-0.027,0.019-0.054,0.029-0.081c15.473-43.679,55.275-75.846,103.119-80.215c-3.675-0.336-7.397-0.515-11.16-0.515l0,0
	c-49.955,0-92.825,30.233-111.378,73.39h-0.035c-0.229,0.532-0.445,1.07-0.667,1.606c-0.017,0.041-0.034,0.083-0.051,0.124
	c-0.639,1.552-1.246,3.118-1.822,4.701c-0.004,0.012-0.008,0.022-0.012,0.034c-1.163,3.204-2.195,6.47-3.089,9.792
	c-0.001,0.002-0.001,0.005-0.002,0.007c-0.441,1.642-0.848,3.298-1.221,4.967c-0.005,0.023-0.012,0.046-0.017,0.069
	c0,0.001,0.001,0.001,0.001,0.002c-1.906,8.536-2.92,17.408-2.92,26.519v62.888c0,66.944,54.269,121.213,121.213,121.213l0,0
	c3.764,0,7.484-0.181,11.16-0.517C205.383,308.876,157.042,256.995,157.042,193.815z"/>
<g>
	<circle style="fill:#26150C;" cx="199.173" cy="174.439" r="15.692"/>
	<circle style="fill:#26150C;" cx="312.826" cy="174.439" r="15.692"/>
	<path style="fill:#26150C;" d="M291.777,229.122c-7.478,5.357-21.187,8.685-35.775,8.685c-14.593,0-28.305-3.33-35.783-8.69
		c-3.579-2.565-8.558-1.745-11.123,1.836c-2.565,3.578-1.744,8.558,1.835,11.123c10.198,7.31,27.047,11.675,45.071,11.675
		c18.017,0,34.861-4.362,45.061-11.668c3.579-2.564,4.402-7.543,1.838-11.122C300.336,227.381,295.357,226.556,291.777,229.122z"/>
	<path style="fill:#26150C;" d="M419.85,0H92.151c-4.402,0-7.972,3.568-7.972,7.972v30.35c0,4.403,3.569,7.972,7.972,7.972h15.799
		v36.72c-13.585,3.543-23.642,15.914-23.642,30.594c0,17.431,14.182,31.613,31.613,31.613c3.825,0,7.494-0.683,10.891-1.934v2.498
		c-20.376,5.153-35.455,23.838-35.455,45.411c0,24.649,19.142,44.898,43.34,46.696c13.427,36.517,42.901,65.348,79.829,77.897
		v23.542h-23.808c-1.151,0-2.296,0.027-3.437,0.066c-0.256,0.009-0.512,0.018-0.768,0.03c-2.313,0.097-4.604,0.273-6.874,0.526
		c-0.249,0.028-0.497,0.056-0.747,0.086c-1.117,0.133-2.23,0.278-3.335,0.449c-0.028,0.004-0.056,0.007-0.085,0.012
		c-0.017,0.002-0.033,0.008-0.049,0.011c-47.552,7.378-84.066,48.597-84.066,98.184v65.337c0,4.403,3.569,7.972,7.972,7.972h313.337
		c4.402,0,7.972-3.568,7.972-7.972v-65.337c0-49.58-36.501-90.792-84.041-98.181c-0.022-0.004-0.045-0.012-0.068-0.015
		c-0.038-0.006-0.078-0.01-0.117-0.016c-1.092-0.168-2.191-0.31-3.292-0.442c-0.258-0.031-0.517-0.06-0.775-0.088
		c-2.267-0.253-4.557-0.428-6.866-0.525c-0.255-0.011-0.51-0.02-0.765-0.03c-1.142-0.039-2.287-0.066-3.438-0.066h-23.806v-23.542
		c36.928-12.55,66.402-41.38,79.829-77.897c24.197-1.797,43.341-22.046,43.341-46.696c0-21.573-15.079-40.258-35.455-45.411v-15.242
		c0-9.439-1.031-18.875-3.065-28.045c-0.004-0.024-0.015-0.047-0.019-0.071c-0.01-0.047-0.015-0.095-0.025-0.142
		c-4.599-20.603-14.423-39.935-28.224-55.992h66.001c4.402,0,7.972-3.568,7.972-7.972V7.972C427.821,3.568,424.253,0,419.85,0z
		 M382.462,219.846c2.526-12.11,2.719-24.173,2.719-36.481c0-4.654,0-9.308,0-13.962c0-0.514,0.397-6.748,0-6.908
		c11.435,4.586,19.512,15.873,19.512,28.701c0,14.108-9.506,26.039-22.449,29.723C382.322,220.561,382.388,220.203,382.462,219.846z
		 M107.3,191.195c0-12.828,8.077-24.114,19.512-28.701c0,19.456-1.218,39.264,2.937,58.424
		C116.807,217.234,107.3,205.303,107.3,191.195z M131.464,115.083c-0.822,7.609-7.269,14.195-15.541,14.195
		c-8.64,0-15.67-7.029-15.67-15.67s7.03-15.67,15.67-15.67c6.475,0,12.044,3.948,14.43,9.562c0.051,0.12,0.088,0.244,0.136,0.365
		C131.432,110.257,131.719,112.719,131.464,115.083z M134.102,87.768c-3.052-2.153-6.495-3.786-10.208-4.754v-36.72h34.252
		C147.642,58.514,139.445,72.633,134.102,87.768z M194.129,83.159c0.232,0.189,0.473,0.365,0.722,0.525
		c1.244,0.802,2.682,1.239,4.151,1.27c0.588,0.012,1.18-0.04,1.765-0.16c9.158-1.875,18.635-1.86,27.731,0.367
		c-0.846-0.207-2.707,2.142-3.117,2.719c-0.855,1.201-1.428,2.613-1.633,4.074c-0.423,3.029-0.432,5.566-1.981,8.372
		c-2.84,5.143-8.375,8.43-14.254,8.43c-8.972,0-16.272-7.299-16.272-16.272c0-4.403-3.569-7.972-7.972-7.972
		s-7.972,3.568-7.972,7.972c0,13.817-17.684,21.352-27.605,11.672c-0.477-0.466-0.923-0.959-1.34-1.478
		c-0.035-0.044-0.068-0.087-0.103-0.131c5.489-21.513,17.482-41.292,34.12-56.253h10.826v30.689
		C191.197,79.379,192.274,81.646,194.129,83.159z M222.499,355.273h9.949l-3.165,4.324c-1.859,2.54-2.049,5.936-0.486,8.668
		l10.887,19.022l-6.299,26.924l-41.995-58.938h31.109V355.273z M259.213,378.078h-6.429l-7.578-13.241l7-9.564h7.586l7,9.564
		L259.213,378.078z M266.284,431.511l-10.283,14.437l-9.05-12.701l-1.238-1.738l8.77-37.489h3.031L266.284,431.511z M263.835,339.33
		H248.16H230.47v-19.241c0,1.45,21.216,2.463,23.274,2.498c9.31,0.16,18.649-0.667,27.78-2.498v19.241H263.835z M338.849,357.152
		c37.584,8.094,65.844,41.571,65.844,81.539v57.365H107.3v-57.365c0-39.97,28.263-73.45,65.851-81.542l59.051,82.874l17.307,24.289
		c0.374,0.525,0.806,0.996,1.283,1.408c1.432,1.236,3.276,1.938,5.209,1.938l0,0c0.233,0,0.462-0.022,0.692-0.041
		c0.088-0.007,0.178-0.005,0.266-0.016c0.187-0.022,0.369-0.065,0.553-0.101c0.128-0.024,0.256-0.039,0.381-0.069
		c0.08-0.019,0.155-0.05,0.234-0.071c1.742-0.483,3.294-1.54,4.366-3.046L338.849,357.152z M320.613,355.273l-42,58.946l-6.3-26.931
		l10.887-19.022c1.564-2.732,1.373-6.129-0.486-8.668l-3.165-4.324h9.948h31.116V355.273z M367.294,121.338
		c0.509-0.252,1.011-0.517,1.505-0.796c0.292,3.323,0.44,6.662,0.44,10.001v21.943c0,12.729-0.003,25.459,0,38.188
		c0.006,25.502-7.263,50.13-22.639,70.611c-13.398,17.846-32.025,31.579-53.08,38.994c-28.208,9.935-60.219,8.125-87.175-5.101
		c-11.09-5.441-21.288-12.692-30.058-21.392c-15.484-15.362-26.373-35.106-30.977-56.434c-3.739-17.324-2.553-35.483-2.553-53.109
		c0-3.919,0-7.838,0-11.756v-21.943c0-0.071,0-0.145,0-0.216c1.588-2.536,2.788-5.332,3.636-8.198
		c-0.241,0.815,9.652,2.432,10.567,2.492c3.387,0.223,6.8-0.089,10.088-0.935c6.264-1.611,11.965-5.147,16.224-10.011
		c5.91,6.751,14.587,11.022,24.243,11.022s18.334-4.272,24.243-11.022c5.91,6.751,14.587,11.022,24.243,11.022
		c9.65,0,18.323-4.265,24.231-11.009c0.472,0.539,0.964,1.064,1.474,1.574c6.085,6.085,14.173,9.435,22.778,9.435
		c9.655,0,18.333-4.272,24.243-11.022c-0.495,0.567,6.818,5.905,7.536,6.342c2.985,1.818,6.264,3.144,9.673,3.907
		C353.067,125.518,360.741,124.577,367.294,121.338z M238.847,88.839c0.086,0.04,0.173,0.08,0.258,0.12
		c0.212,0.1,0.417,0.2,0.622,0.301c2.371,1.16,4.545,2.136,6.609,3.841c2.065,1.705,4.023,3.653,6.548,4.67
		c1.339,0.539,2.809,0.785,4.241,0.599c2.975-0.388,5.268-2.496,7.442-4.378c2.382-2.061,4.713-3.258,7.49-4.629
		c0.243-0.12,0.492-0.24,0.744-0.36c0.114-0.054,0.23-0.108,0.345-0.163c-0.03,0.058-0.052,0.122-0.081,0.181
		c-0.084,0.174-0.164,0.351-0.236,0.531c-0.04,0.1-0.075,0.201-0.111,0.303c-0.062,0.175-0.116,0.352-0.165,0.533
		c-0.029,0.105-0.057,0.21-0.082,0.318c-0.045,0.193-0.078,0.39-0.107,0.589c-0.015,0.096-0.033,0.189-0.044,0.286
		c-0.034,0.297-0.054,0.596-0.054,0.901c0,8.972-7.299,16.272-16.272,16.272c-8.973,0-16.272-7.299-16.272-16.272
		c0-0.305-0.021-0.606-0.054-0.902c-0.011-0.096-0.029-0.188-0.044-0.282c-0.03-0.2-0.064-0.399-0.108-0.594
		c-0.024-0.106-0.052-0.21-0.081-0.316c-0.049-0.181-0.104-0.358-0.165-0.534c-0.036-0.102-0.071-0.203-0.112-0.304
		c-0.071-0.181-0.151-0.356-0.235-0.529C238.899,88.963,238.878,88.899,238.847,88.839z M365.744,102.546
		c-0.034,0.044-0.067,0.087-0.102,0.13c-8.981,11.142-27.666,5.518-28.887-8.798c-0.039-0.463-0.06-0.929-0.06-1.394
		c0-4.403-3.569-7.972-7.972-7.972c-4.402,0-7.972,3.568-7.972,7.972c0,8.972-7.3,16.272-16.272,16.272
		c-4.346,0-8.432-1.693-11.506-4.765c-2.66-2.659-4.354-6.215-4.694-9.967c-0.335-3.692-1.033-7.115-4.794-8.843
		c9.088-2.26,18.583-2.261,27.738-0.386c2.346,0.481,4.783-0.119,6.639-1.634c1.855-1.514,2.931-3.782,2.931-6.176v-30.69h10.826
		C348.261,61.254,360.256,81.033,365.744,102.546z M411.878,30.35H334.62h-21.794c-4.402,0-7.972,3.568-7.972,7.972v29.454
		c-2.317-0.203-4.621-0.305-6.902-0.305c-20.102,0-34.56,7.782-41.955,12.961c-7.394-5.178-21.852-12.961-41.955-12.961
		c-2.281,0-4.585,0.102-6.903,0.305V38.322c0-4.403-3.569-7.972-7.972-7.972h-21.794h-77.251V15.943h311.756V30.35z"/>
</g>
</svg>