<?xml version="1.0" encoding="iso-8859-1"?>
<!-- Uploaded to: SVG Repo, www.svgrepo.com, Generator: SVG Repo Mixer Tools -->
<svg version="1.1" id="Layer_1" xmlns="http://www.w3.org/2000/svg" xmlns:xlink="http://www.w3.org/1999/xlink" 
	 viewBox="0 0 511.999 511.999" xml:space="preserve">
<rect x="256.543" y="54.641" style="fill:#64748b;" width="91.492" height="53.411"/>
<rect x="256.543" y="54.641" style="opacity:0.15;fill:#a8a29e;enable-background:new    ;" width="28.257" height="53.411"/>
<path style="fill:#475569;" d="M256.541,153.846c-4.319,0-7.818-3.5-7.818-7.818V47.348c0-4.318,3.5-7.818,7.818-7.818
	c4.318,0,7.818,3.5,7.818,7.818v98.681C264.36,150.345,260.86,153.846,256.541,153.846z"/>
<polygon style="fill:#475569;" points="337.61,174.486 337.61,146.027 174.389,146.027 174.389,174.486 115.415,174.486 
	115.415,472.472 396.583,472.472 396.583,174.486 "/>
<rect x="7.82" y="117.057" style="fill:#64748b;" width="118.02" height="355.412"/>
<g>
	<rect x="36.238" y="184.291" style="fill:#475569;" width="61.187" height="38.504"/>
	<rect x="36.238" y="285.342" style="fill:#475569;" width="61.187" height="38.504"/>
</g>
<rect x="174.389" y="216.081" style="fill:#64748b;" width="163.224" height="38.504"/>
<rect x="209.125" y="324.852" style="fill:#94a3b8;" width="93.752" height="147.617"/>
<rect x="386.161" y="117.057" style="fill:#64748b;" width="118.02" height="355.412"/>
<g>
	<rect x="414.583" y="184.291" style="fill:#475569;" width="61.187" height="38.504"/>
	<rect x="414.583" y="285.342" style="fill:#475569;" width="61.187" height="38.504"/>
</g>
<polygon style="opacity:0.15;fill:#a8a29e;enable-background:new    ;" points="504.181,452.054 148.053,452.054 148.053,174.494 
	125.833,174.494 125.833,452.054 7.885,452.054 7.885,472.472 125.833,472.472 125.833,472.477 148.053,472.477 148.053,472.472 
	504.181,472.472 "/>
<g>
	<path style="fill:#020617;" d="M36.238,226.7H97.42c4.318,0,7.818-3.5,7.818-7.818v-38.503c0-4.318-3.501-7.818-7.818-7.818H36.238
		c-4.318,0-7.818,3.5-7.818,7.818v38.503C28.42,223.201,31.92,226.7,36.238,226.7z M44.057,188.197h45.546v22.866H44.057V188.197z"
		/>
	<path style="fill:#020617;" d="M36.238,327.751H97.42c4.318,0,7.818-3.5,7.818-7.818v-38.504c0-4.319-3.501-7.818-7.818-7.818
		H36.238c-4.318,0-7.818,3.5-7.818,7.818v38.504C28.42,324.252,31.92,327.751,36.238,327.751z M44.057,289.247h45.546v22.867H44.057
		V289.247z"/>
	<path style="fill:#020617;" d="M174.389,204.355c-4.318,0-7.818,3.5-7.818,7.818v38.503c0,4.319,3.5,7.818,7.818,7.818h163.223
		c4.318,0,7.819-3.5,7.819-7.818v-38.503c0-4.319-3.5-7.818-7.819-7.818H174.389z M209.161,242.858h-26.954v-22.866h26.954V242.858z
		 M248.182,242.858h-23.384v-22.866h23.384V242.858z M287.202,242.858h-23.384v-22.866h23.384V242.858z M329.792,242.858h-26.954
		v-22.866h26.954V242.858z"/>
	<path style="fill:#020617;" d="M414.579,226.7h61.182c4.318,0,7.818-3.5,7.818-7.818v-38.503c0-4.318-3.5-7.818-7.818-7.818
		h-61.182c-4.318,0-7.818,3.5-7.818,7.818v38.503C406.761,223.201,410.261,226.7,414.579,226.7z M422.398,188.197h45.546v22.866
		h-45.546V188.197z"/>
	<path style="fill:#020617;" d="M414.579,327.751h61.182c4.318,0,7.818-3.5,7.818-7.818v-38.504c0-4.319-3.5-7.818-7.818-7.818
		h-61.182c-4.318,0-7.818,3.5-7.818,7.818v38.504C406.761,324.252,410.261,327.751,414.579,327.751z M422.398,289.247h45.546v22.867
		h-45.546V289.247z"/>
	<path style="fill:#020617;" d="M504.181,105.332H386.159c-4.318,0-7.818,3.5-7.818,7.818v49.608h-32.912v-20.641
		c0-4.318-3.5-7.818-7.819-7.818h-73.25v-22.335h83.674c4.318,0,7.818-3.5,7.818-7.818V50.734c0-4.318-3.5-7.818-7.818-7.818
		h-83.701c-0.269-4.074-3.65-7.297-7.792-7.297c-4.318,0-7.818,3.5-7.818,7.818v7.297v53.412V134.3h-74.334
		c-4.318,0-7.818,3.5-7.818,7.818v20.641h-32.912V113.15c0-4.318-3.5-7.818-7.818-7.818H7.818c-4.318,0-7.818,3.5-7.818,7.818
		v355.411c0,4.319,3.5,7.818,7.818,7.818h118.001c0.007,0,0.013,0.001,0.02,0.001h270.745c0.007,0,0.013-0.001,0.02-0.001h107.577
		c4.318,0,7.818-3.5,7.818-7.818V113.15C512,108.832,508.5,105.332,504.181,105.332z M264.361,58.553h75.856v37.775h-75.856V58.553z
		 M118.023,460.743H15.637v-202.77h102.386C118.023,257.973,118.023,460.743,118.023,460.743z M118.023,170.577v71.759H15.637
		V120.969h102.386C118.023,120.969,118.023,170.577,118.023,170.577z M295.056,460.743h-78.112v-12.637h78.112V460.743z
		 M295.056,432.469h-78.112v-13.272h78.112V432.469z M295.056,403.561h-78.112v-74.802h78.112V403.561z M378.341,460.745h-67.648
		V320.941c0-4.319-3.501-7.818-7.819-7.818h-93.748c-4.318,0-7.818,3.5-7.818,7.818v139.803h-67.649V178.395h40.729
		c4.318,0,7.818-3.5,7.818-7.818v-20.641h147.586v20.641c0,4.318,3.5,7.818,7.818,7.818h40.729v282.349H378.341z M496.363,460.743
		H393.977v-202.77h102.386V460.743z M496.363,242.337H393.977V120.969h102.386V242.337z"/>
</g>
</svg>